<svg xmlns="http://www.w3.org/2000/svg" xmlns:xlink="http://www.w3.org/1999/xlink" width="500" zoomAndPan="magnify" viewBox="0 0 375 374.999991" height="500" preserveAspectRatio="xMidYMid meet" version="1.0"><defs><g/><clipPath id="2352077dbd"><path d="M 0 13.671875 L 374 13.671875 L 374 361.671875 L 0 361.671875 Z M 0 13.671875 " clip-rule="nonzero"/></clipPath></defs><g clip-path="url(#2352077dbd)"><path fill="#ff0000" d="M 315.472656 73.488281 C 313.824219 73.488281 312.1875 73.558594 310.566406 73.695312 C 288.386719 75.5625 269.765625 89.945312 261.792969 109.75 C 261.75 108.46875 260.703125 67.929688 306.859375 57.308594 L 306.871094 57.308594 C 297.578125 31.859375 273.148438 13.6875 244.480469 13.6875 C 219.671875 13.6875 198.039062 27.304688 186.65625 47.46875 C 181.214844 57.089844 178.109375 68.214844 178.109375 80.058594 C 178.109375 91.878906 181.191406 102.976562 186.617188 112.585938 C 160.363281 93.171875 160.824219 52.414062 175.316406 32.691406 C 163.347656 20.941406 146.921875 13.6875 128.816406 13.6875 C 117.449219 13.6875 106.761719 16.535156 97.410156 21.582031 C 78.355469 31.832031 64.886719 51.105469 62.730469 73.695312 C 62.527344 75.792969 62.433594 77.90625 62.433594 80.058594 C 62.433594 98.148438 69.671875 114.5625 81.40625 126.53125 C 80.601562 126.394531 49.902344 121.0625 46.839844 74.554688 L 46.839844 74.539062 C 20.148438 79.675781 0 103.152344 0 131.328125 C 0 163.265625 25.886719 189.167969 57.839844 189.167969 C 61.613281 189.167969 65.308594 188.800781 68.878906 188.105469 L 54.824219 337.457031 C 53.617188 350.28125 63.703125 361.359375 76.585938 361.359375 L 128.519531 361.359375 L 128.519531 229.421875 C 112.050781 223.449219 103.980469 203.945312 112.160156 174.117188 C 122.097656 137.898438 140.199219 141.402344 140.199219 141.402344 C 140.199219 141.402344 158.316406 137.898438 168.242188 174.117188 C 176.421875 203.945312 168.363281 223.449219 151.882812 229.421875 L 151.882812 361.363281 L 221.402344 361.363281 L 221.402344 229.433594 C 212.175781 226.09375 205.589844 218.5 203.027344 207.214844 C 202.238281 203.777344 201.828125 200.003906 201.828125 195.898438 L 201.828125 147.796875 C 201.828125 144.546875 204.214844 141.648438 207.449219 141.347656 C 211.15625 141.003906 214.246094 143.90625 214.246094 147.523438 L 214.246094 203.648438 C 214.246094 207.246094 217.191406 210.398438 220.785156 210.277344 C 222.445312 210.222656 223.945312 209.523438 225.03125 208.425781 C 226.175781 207.28125 226.882812 205.699219 226.882812 203.957031 L 226.882812 147.832031 C 226.882812 144.292969 229.785156 141.199219 233.324219 141.324219 C 234.953125 141.378906 236.421875 142.0625 237.492188 143.132812 C 238.609375 144.265625 239.304688 145.804688 239.304688 147.523438 L 239.304688 203.648438 C 239.304688 207.246094 242.25 210.398438 245.84375 210.277344 C 247.503906 210.222656 249 209.523438 250.085938 208.425781 C 251.230469 207.28125 251.941406 205.699219 251.941406 203.957031 L 251.941406 147.519531 C 251.941406 144.097656 254.722656 141.316406 258.15625 141.316406 C 259.875 141.316406 261.414062 142.011719 262.546875 143.132812 C 263.664062 144.261719 264.359375 145.804688 264.359375 147.519531 L 264.359375 196.714844 C 264.316406 200.507812 263.90625 204.007812 263.171875 207.210938 C 260.597656 218.5 254.011719 226.09375 244.785156 229.433594 L 244.785156 361.359375 L 296.71875 361.359375 C 309.597656 361.359375 319.683594 350.277344 318.476562 337.457031 L 304.421875 188.101562 C 310.433594 189.246094 316.714844 189.546875 323.332031 188.613281 C 350.546875 184.789062 371.707031 162.027344 373.214844 134.585938 C 375.042969 101.167969 348.492188 73.488281 315.472656 73.488281 Z M 315.472656 73.488281 " fill-opacity="1" fill-rule="nonzero"/></g><g fill="#ff0000" fill-opacity="1"><g transform="translate(167.843856, 280.410025)"><g><path d="M 16.265625 0.34375 C 15.046875 0.34375 14.144531 0.09375 13.5625 -0.40625 C 12.988281 -0.914062 12.703125 -1.726562 12.703125 -2.84375 L 12.703125 -30.46875 C 12.234375 -30.425781 11.65625 -30.34375 10.96875 -30.21875 C 10.28125 -30.09375 9.554688 -29.914062 8.796875 -29.6875 C 8.046875 -29.457031 7.296875 -29.175781 6.546875 -28.84375 C 5.796875 -28.519531 5.117188 -28.144531 4.515625 -27.71875 C 3.921875 -27.289062 3.4375 -26.804688 3.0625 -26.265625 C 2.6875 -25.734375 2.5 -25.140625 2.5 -24.484375 C 2.5 -24.023438 2.5625 -23.65625 2.6875 -23.375 C 2.8125 -23.101562 2.953125 -22.898438 3.109375 -22.765625 C 3.265625 -22.628906 3.425781 -22.539062 3.59375 -22.5 C 3.757812 -22.46875 3.878906 -22.453125 3.953125 -22.453125 C 4.316406 -22.453125 4.613281 -22.507812 4.84375 -22.625 C 5.082031 -22.75 5.296875 -22.878906 5.484375 -23.015625 C 5.671875 -23.160156 5.847656 -23.289062 6.015625 -23.40625 C 6.179688 -23.53125 6.375 -23.59375 6.59375 -23.59375 C 6.769531 -23.59375 6.953125 -23.550781 7.140625 -23.46875 C 7.335938 -23.394531 7.519531 -23.269531 7.6875 -23.09375 C 7.851562 -22.925781 7.992188 -22.695312 8.109375 -22.40625 C 8.222656 -22.125 8.28125 -21.78125 8.28125 -21.375 C 8.28125 -20.800781 8.164062 -20.300781 7.9375 -19.875 C 7.71875 -19.457031 7.429688 -19.109375 7.078125 -18.828125 C 6.722656 -18.546875 6.316406 -18.332031 5.859375 -18.1875 C 5.398438 -18.050781 4.945312 -17.984375 4.5 -17.984375 C 3.800781 -17.984375 3.171875 -18.101562 2.609375 -18.34375 C 2.054688 -18.582031 1.582031 -18.910156 1.1875 -19.328125 C 0.800781 -19.753906 0.503906 -20.25 0.296875 -20.8125 C 0.0976562 -21.382812 0 -21.988281 0 -22.625 C 0 -24.320312 0.46875 -25.789062 1.40625 -27.03125 C 2.34375 -28.269531 3.617188 -29.296875 5.234375 -30.109375 C 6.859375 -30.929688 8.75 -31.535156 10.90625 -31.921875 C 13.070312 -32.316406 15.390625 -32.515625 17.859375 -32.515625 C 19.035156 -32.515625 20.179688 -32.503906 21.296875 -32.484375 C 22.410156 -32.460938 23.425781 -32.429688 24.34375 -32.390625 C 25.269531 -32.347656 26.066406 -32.296875 26.734375 -32.234375 C 27.398438 -32.179688 27.882812 -32.117188 28.1875 -32.046875 C 28.476562 -31.972656 28.707031 -31.863281 28.875 -31.71875 C 29.050781 -31.582031 29.179688 -31.425781 29.265625 -31.25 C 29.359375 -31.082031 29.421875 -30.898438 29.453125 -30.703125 C 29.484375 -30.503906 29.5 -30.304688 29.5 -30.109375 C 29.5 -29.941406 29.472656 -29.753906 29.421875 -29.546875 C 29.378906 -29.335938 29.316406 -29.140625 29.234375 -28.953125 C 29.148438 -28.765625 29.039062 -28.601562 28.90625 -28.46875 C 28.78125 -28.34375 28.617188 -28.28125 28.421875 -28.28125 C 28.304688 -28.28125 28.1875 -28.328125 28.0625 -28.421875 C 27.945312 -28.523438 27.78125 -28.648438 27.5625 -28.796875 C 27.34375 -28.941406 27.046875 -29.109375 26.671875 -29.296875 C 26.304688 -29.484375 25.820312 -29.65625 25.21875 -29.8125 C 24.613281 -29.976562 23.875 -30.125 23 -30.25 C 22.125 -30.382812 21.0625 -30.472656 19.8125 -30.515625 L 19.8125 -2.84375 C 19.8125 -1.726562 19.519531 -0.914062 18.9375 -0.40625 C 18.363281 0.09375 17.472656 0.34375 16.265625 0.34375 Z M 16.265625 0.34375 "/></g></g></g><g fill="#ff0000" fill-opacity="1"><g transform="translate(192.655409, 280.410025)"><g><path d="M 13.4375 -32.34375 C 13.03125 -32.34375 12.644531 -32.253906 12.28125 -32.078125 C 11.925781 -31.910156 11.613281 -31.632812 11.34375 -31.25 C 11.070312 -30.863281 10.859375 -30.375 10.703125 -29.78125 C 10.546875 -29.1875 10.46875 -28.46875 10.46875 -27.625 L 10.46875 -22.28125 L 15.21875 -22.28125 L 15.21875 -20.703125 L 10.46875 -20.703125 L 10.46875 -3.5625 C 10.46875 -1.59375 10.207031 0.222656 9.6875 1.890625 C 9.175781 3.554688 8.394531 4.992188 7.34375 6.203125 C 6.300781 7.421875 5 8.367188 3.4375 9.046875 C 1.875 9.734375 0.046875 10.078125 -2.046875 10.078125 C -2.785156 10.078125 -3.492188 10.015625 -4.171875 9.890625 C -4.859375 9.765625 -5.460938 9.59375 -5.984375 9.375 C -6.503906 9.15625 -6.921875 8.894531 -7.234375 8.59375 C -7.546875 8.300781 -7.703125 7.972656 -7.703125 7.609375 C -7.703125 7.347656 -7.664062 7.082031 -7.59375 6.8125 C -7.519531 6.550781 -7.410156 6.3125 -7.265625 6.09375 C -7.117188 5.875 -6.941406 5.691406 -6.734375 5.546875 C -6.523438 5.410156 -6.28125 5.34375 -6 5.34375 C -5.84375 5.34375 -5.703125 5.421875 -5.578125 5.578125 C -5.453125 5.742188 -5.320312 5.941406 -5.1875 6.171875 C -5.0625 6.410156 -4.914062 6.671875 -4.75 6.953125 C -4.582031 7.234375 -4.367188 7.488281 -4.109375 7.71875 C -3.847656 7.945312 -3.523438 8.140625 -3.140625 8.296875 C -2.753906 8.460938 -2.285156 8.546875 -1.734375 8.546875 C -0.992188 8.546875 -0.34375 8.394531 0.21875 8.09375 C 0.78125 7.800781 1.265625 7.394531 1.671875 6.875 C 2.078125 6.351562 2.414062 5.734375 2.6875 5.015625 C 2.96875 4.304688 3.1875 3.546875 3.34375 2.734375 C 3.507812 1.921875 3.625 1.070312 3.6875 0.1875 C 3.75 -0.6875 3.78125 -1.566406 3.78125 -2.453125 L 3.78125 -20.703125 L -0.21875 -20.703125 L -0.21875 -22.28125 L 3.78125 -22.28125 L 3.78125 -24.8125 C 3.78125 -26.09375 3.9375 -27.207031 4.25 -28.15625 C 4.5625 -29.101562 4.972656 -29.910156 5.484375 -30.578125 C 6.003906 -31.242188 6.585938 -31.785156 7.234375 -32.203125 C 7.890625 -32.628906 8.554688 -32.960938 9.234375 -33.203125 C 9.910156 -33.453125 10.566406 -33.617188 11.203125 -33.703125 C 11.835938 -33.796875 12.394531 -33.84375 12.875 -33.84375 C 13.90625 -33.84375 14.816406 -33.765625 15.609375 -33.609375 C 16.410156 -33.460938 17.078125 -33.257812 17.609375 -33 C 18.148438 -32.75 18.554688 -32.457031 18.828125 -32.125 C 19.109375 -31.789062 19.25 -31.453125 19.25 -31.109375 C 19.25 -30.847656 19.207031 -30.582031 19.125 -30.3125 C 19.050781 -30.039062 18.941406 -29.789062 18.796875 -29.5625 C 18.648438 -29.34375 18.46875 -29.164062 18.25 -29.03125 C 18.039062 -28.894531 17.804688 -28.828125 17.546875 -28.828125 C 17.390625 -28.828125 17.242188 -28.910156 17.109375 -29.078125 C 16.984375 -29.253906 16.847656 -29.472656 16.703125 -29.734375 C 16.554688 -29.992188 16.394531 -30.273438 16.21875 -30.578125 C 16.050781 -30.890625 15.835938 -31.175781 15.578125 -31.4375 C 15.328125 -31.695312 15.023438 -31.910156 14.671875 -32.078125 C 14.328125 -32.253906 13.914062 -32.34375 13.4375 -32.34375 Z M 13.4375 -32.34375 "/></g></g></g></svg>