<svg xmlns="http://www.w3.org/2000/svg" xmlns:xlink="http://www.w3.org/1999/xlink" width="1340" zoomAndPan="magnify" viewBox="0 0 1005 225" height="300" preserveAspectRatio="xMidYMid meet" version="1.0"><defs><g/><clipPath id="7c444905ed"><path d="M 5.003906 12.289062 L 196 12.289062 L 196 189.289062 L 5.003906 189.289062 Z M 5.003906 12.289062 " clip-rule="nonzero"/></clipPath><clipPath id="ec37d06502"><path d="M 800.476562 69.460938 L 854 69.460938 L 854 178.960938 L 800.476562 178.960938 Z M 800.476562 69.460938 " clip-rule="nonzero"/></clipPath></defs><g fill="#737373" fill-opacity="1"><g transform="translate(198.211293, 177.214184)"><g><path d="M 50.484375 -18.59375 C 50.484375 -15.050781 50.644531 -11.742188 50.96875 -8.671875 C 51.300781 -5.597656 51.929688 -2.707031 52.859375 0 L 31.75 0 C 32.769531 -2.707031 33.441406 -5.597656 33.765625 -8.671875 C 34.097656 -11.742188 34.265625 -15.050781 34.265625 -18.59375 C 34.265625 -32.019531 34.265625 -45.46875 34.265625 -58.9375 C 34.265625 -72.414062 34.265625 -85.914062 34.265625 -99.4375 L 19.578125 -99.4375 C 15.472656 -99.4375 12.140625 -98.757812 9.578125 -97.40625 C 7.015625 -96.0625 5.078125 -94.570312 3.765625 -92.9375 C 2.460938 -91.300781 1.628906 -89.972656 1.265625 -88.953125 L 0 -88.953125 L 0.984375 -104.890625 L 83.78125 -104.890625 L 84.75 -88.953125 L 83.5 -88.953125 C 83.125 -89.972656 82.28125 -91.300781 80.96875 -92.9375 C 79.664062 -94.570312 77.734375 -96.0625 75.171875 -97.40625 C 72.609375 -98.757812 69.226562 -99.4375 65.03125 -99.4375 L 50.484375 -99.4375 C 50.484375 -85.914062 50.484375 -72.414062 50.484375 -58.9375 C 50.484375 -45.46875 50.484375 -32.019531 50.484375 -18.59375 Z M 50.484375 -18.59375 "/></g></g></g><g fill="#737373" fill-opacity="1"><g transform="translate(294.715541, 177.214184)"><g><path d="M 15.9375 -17.0625 C 15.9375 -13.613281 16.097656 -10.582031 16.421875 -7.96875 C 16.753906 -5.363281 17.4375 -2.707031 18.46875 0 C 15.382812 0 12.300781 0 9.21875 0 C 6.144531 0 3.070312 0 0 0 C 1.019531 -2.707031 1.691406 -5.363281 2.015625 -7.96875 C 2.347656 -10.582031 2.515625 -13.613281 2.515625 -17.0625 C 2.515625 -22.84375 2.515625 -28.597656 2.515625 -34.328125 C 2.515625 -40.066406 2.515625 -45.78125 2.515625 -51.46875 C 2.515625 -55.007812 2.347656 -58.082031 2.015625 -60.6875 C 1.691406 -63.300781 1.019531 -65.914062 0 -68.53125 C 3.070312 -68.53125 6.144531 -68.53125 9.21875 -68.53125 C 12.300781 -68.53125 15.382812 -68.53125 18.46875 -68.53125 C 17.4375 -65.914062 16.753906 -63.300781 16.421875 -60.6875 C 16.097656 -58.082031 15.9375 -55.007812 15.9375 -51.46875 C 15.9375 -45.78125 15.9375 -40.066406 15.9375 -34.328125 C 15.9375 -28.597656 15.9375 -22.84375 15.9375 -17.0625 Z M 9.234375 -86.71875 C 11.097656 -86.71875 12.679688 -86.0625 13.984375 -84.75 C 15.285156 -83.445312 15.9375 -81.863281 15.9375 -80 C 15.9375 -78.132812 15.285156 -76.546875 13.984375 -75.234375 C 12.679688 -73.929688 11.097656 -73.28125 9.234375 -73.28125 C 7.367188 -73.28125 5.78125 -73.929688 4.46875 -75.234375 C 3.164062 -76.546875 2.515625 -78.132812 2.515625 -80 C 2.515625 -81.863281 3.164062 -83.445312 4.46875 -84.75 C 5.78125 -86.0625 7.367188 -86.71875 9.234375 -86.71875 Z M 9.234375 -86.71875 "/></g></g></g><g fill="#737373" fill-opacity="1"><g transform="translate(324.925579, 177.214184)"><g><path d="M 2.515625 -17.0625 L 2.515625 -63.640625 L -5.875 -63.640625 L -5.875 -68.53125 L 2.65625 -68.53125 C 2.84375 -71.238281 3.332031 -73.453125 4.125 -75.171875 C 4.914062 -76.898438 6.195312 -79.019531 7.96875 -81.53125 L 19.859375 -98.046875 C 20.972656 -99.628906 22.273438 -101.164062 23.765625 -102.65625 C 25.265625 -104.144531 27.039062 -104.890625 29.09375 -104.890625 L 49.796875 -104.890625 L 40.140625 -91.46875 L 29.515625 -91.46875 C 24.285156 -91.46875 20.738281 -90.582031 18.875 -88.8125 C 17.007812 -87.039062 16.078125 -83.546875 16.078125 -78.328125 L 16.078125 -68.53125 L 31.46875 -68.53125 L 31.46875 -63.640625 L 16.078125 -63.640625 L 16.078125 -17.0625 C 16.078125 -13.613281 16.238281 -10.582031 16.5625 -7.96875 C 16.894531 -5.363281 17.53125 -2.707031 18.46875 0 C 15.382812 0 12.300781 0 9.21875 0 C 6.144531 0 3.070312 0 0 0 C 1.019531 -2.707031 1.691406 -5.363281 2.015625 -7.96875 C 2.347656 -10.582031 2.515625 -13.613281 2.515625 -17.0625 Z M 2.515625 -17.0625 "/></g></g></g><g fill="#737373" fill-opacity="1"><g transform="translate(363.527288, 177.214184)"><g><path d="M 2.515625 -17.0625 L 2.515625 -63.640625 L -5.875 -63.640625 L -5.875 -68.53125 L 2.65625 -68.53125 C 2.84375 -71.238281 3.332031 -73.453125 4.125 -75.171875 C 4.914062 -76.898438 6.195312 -79.019531 7.96875 -81.53125 L 19.859375 -98.046875 C 20.972656 -99.628906 22.273438 -101.164062 23.765625 -102.65625 C 25.265625 -104.144531 27.039062 -104.890625 29.09375 -104.890625 L 49.796875 -104.890625 L 40.140625 -91.46875 L 29.515625 -91.46875 C 24.285156 -91.46875 20.738281 -90.582031 18.875 -88.8125 C 17.007812 -87.039062 16.078125 -83.546875 16.078125 -78.328125 L 16.078125 -68.53125 L 31.46875 -68.53125 L 31.46875 -63.640625 L 16.078125 -63.640625 L 16.078125 -17.0625 C 16.078125 -13.613281 16.238281 -10.582031 16.5625 -7.96875 C 16.894531 -5.363281 17.53125 -2.707031 18.46875 0 C 15.382812 0 12.300781 0 9.21875 0 C 6.144531 0 3.070312 0 0 0 C 1.019531 -2.707031 1.691406 -5.363281 2.015625 -7.96875 C 2.347656 -10.582031 2.515625 -13.613281 2.515625 -17.0625 Z M 2.515625 -17.0625 "/></g></g></g><g fill="#737373" fill-opacity="1"><g transform="translate(402.128996, 177.214184)"><g><path d="M 15.9375 -17.0625 C 15.9375 -13.613281 16.097656 -10.582031 16.421875 -7.96875 C 16.753906 -5.363281 17.4375 -2.707031 18.46875 0 C 15.382812 0 12.300781 0 9.21875 0 C 6.144531 0 3.070312 0 0 0 C 1.019531 -2.707031 1.691406 -5.363281 2.015625 -7.96875 C 2.347656 -10.582031 2.515625 -13.613281 2.515625 -17.0625 C 2.515625 -22.84375 2.515625 -28.597656 2.515625 -34.328125 C 2.515625 -40.066406 2.515625 -45.78125 2.515625 -51.46875 C 2.515625 -55.007812 2.347656 -58.082031 2.015625 -60.6875 C 1.691406 -63.300781 1.019531 -65.914062 0 -68.53125 C 3.070312 -68.53125 6.144531 -68.53125 9.21875 -68.53125 C 12.300781 -68.53125 15.382812 -68.53125 18.46875 -68.53125 C 17.4375 -65.914062 16.753906 -63.300781 16.421875 -60.6875 C 16.097656 -58.082031 15.9375 -55.007812 15.9375 -51.46875 C 15.9375 -45.78125 15.9375 -40.066406 15.9375 -34.328125 C 15.9375 -28.597656 15.9375 -22.84375 15.9375 -17.0625 Z M 9.234375 -86.71875 C 11.097656 -86.71875 12.679688 -86.0625 13.984375 -84.75 C 15.285156 -83.445312 15.9375 -81.863281 15.9375 -80 C 15.9375 -78.132812 15.285156 -76.546875 13.984375 -75.234375 C 12.679688 -73.929688 11.097656 -73.28125 9.234375 -73.28125 C 7.367188 -73.28125 5.78125 -73.929688 4.46875 -75.234375 C 3.164062 -76.546875 2.515625 -78.132812 2.515625 -80 C 2.515625 -81.863281 3.164062 -83.445312 4.46875 -84.75 C 5.78125 -86.0625 7.367188 -86.71875 9.234375 -86.71875 Z M 9.234375 -86.71875 "/></g></g></g><g fill="#737373" fill-opacity="1"><g transform="translate(432.339034, 177.214184)"><g><path d="M 0 -68.53125 L 13.421875 -68.53125 C 14.171875 -66.570312 14.734375 -64.632812 15.109375 -62.71875 C 15.484375 -60.8125 15.710938 -58.832031 15.796875 -56.78125 C 18.785156 -58.644531 21.976562 -60.460938 25.375 -62.234375 C 28.78125 -64.003906 32.347656 -65.492188 36.078125 -66.703125 C 39.804688 -67.921875 43.488281 -68.53125 47.125 -68.53125 C 52.90625 -68.53125 57.3125 -67.0625 60.34375 -64.125 C 63.375 -61.1875 64.890625 -56.828125 64.890625 -51.046875 C 64.890625 -45.734375 64.890625 -40 64.890625 -33.84375 C 64.890625 -27.6875 64.890625 -22.09375 64.890625 -17.0625 C 64.890625 -13.613281 65.078125 -10.582031 65.453125 -7.96875 C 65.828125 -5.363281 66.476562 -2.707031 67.40625 0 C 64.332031 0 61.253906 0 58.171875 0 C 55.097656 0 52.023438 0 48.953125 0 C 49.972656 -2.707031 50.644531 -5.363281 50.96875 -7.96875 C 51.300781 -10.582031 51.46875 -13.613281 51.46875 -17.0625 L 51.46875 -48.25 C 51.46875 -52.726562 50.628906 -55.945312 48.953125 -57.90625 C 47.273438 -59.863281 45.035156 -60.890625 42.234375 -60.984375 C 39.441406 -61.078125 36.316406 -60.5625 32.859375 -59.4375 C 29.972656 -58.507812 26.988281 -57.296875 23.90625 -55.796875 C 20.832031 -54.304688 18.175781 -52.910156 15.9375 -51.609375 C 15.9375 -51.421875 15.9375 -51.234375 15.9375 -51.046875 C 15.9375 -50.859375 15.9375 -50.671875 15.9375 -50.484375 L 15.9375 -17.0625 C 15.9375 -13.613281 16.097656 -10.582031 16.421875 -7.96875 C 16.753906 -5.363281 17.4375 -2.707031 18.46875 0 C 15.382812 0 12.300781 0 9.21875 0 C 6.144531 0 3.070312 0 0 0 C 1.019531 -2.707031 1.691406 -5.363281 2.015625 -7.96875 C 2.347656 -10.582031 2.515625 -13.613281 2.515625 -17.0625 L 2.515625 -51.46875 C 2.515625 -55.007812 2.347656 -58.082031 2.015625 -60.6875 C 1.691406 -63.300781 1.019531 -65.914062 0 -68.53125 Z M 0 -68.53125 "/></g></g></g><g fill="#737373" fill-opacity="1"><g transform="translate(511.500495, 177.214184)"><g/></g></g><g fill="#737373" fill-opacity="1"><g transform="translate(559.752597, 177.214184)"><g><path d="M 18.59375 -18.59375 C 18.59375 -15.050781 18.78125 -11.742188 19.15625 -8.671875 C 19.53125 -5.597656 20.1875 -2.707031 21.125 0 L 0 0 C 1.019531 -2.707031 1.691406 -5.597656 2.015625 -8.671875 C 2.347656 -11.742188 2.515625 -15.050781 2.515625 -18.59375 C 2.515625 -20.925781 2.515625 -24.351562 2.515625 -28.875 C 2.515625 -33.40625 2.515625 -38.46875 2.515625 -44.0625 C 2.515625 -49.65625 2.515625 -55.25 2.515625 -60.84375 C 2.515625 -66.4375 2.515625 -71.492188 2.515625 -76.015625 C 2.515625 -80.535156 2.515625 -83.960938 2.515625 -86.296875 C 2.515625 -89.835938 2.347656 -93.171875 2.015625 -96.296875 C 1.691406 -99.421875 1.019531 -102.285156 0 -104.890625 L 68.8125 -104.890625 L 69.796875 -88.953125 L 68.671875 -88.953125 C 68.296875 -89.972656 67.457031 -91.300781 66.15625 -92.9375 C 64.851562 -94.570312 62.914062 -96.0625 60.34375 -97.40625 C 57.78125 -98.757812 54.398438 -99.4375 50.203125 -99.4375 L 18.59375 -99.4375 L 18.59375 -50.765625 L 33.984375 -50.765625 C 38.179688 -50.765625 41.5625 -51.441406 44.125 -52.796875 C 46.6875 -54.148438 48.617188 -55.664062 49.921875 -57.34375 C 51.234375 -59.019531 52.078125 -60.328125 52.453125 -61.265625 L 53.703125 -61.265625 C 53.703125 -56.878906 53.703125 -52.46875 53.703125 -48.03125 C 53.703125 -43.601562 53.703125 -39.203125 53.703125 -34.828125 L 52.453125 -34.828125 C 52.078125 -35.847656 51.234375 -37.175781 49.921875 -38.8125 C 48.617188 -40.445312 46.6875 -41.9375 44.125 -43.28125 C 41.5625 -44.632812 38.179688 -45.3125 33.984375 -45.3125 L 18.59375 -45.3125 Z M 18.59375 -18.59375 "/></g></g></g><g fill="#737373" fill-opacity="1"><g transform="translate(641.431551, 177.214184)"><g><path d="M 67.40625 0 L 53.984375 0 C 53.234375 -1.957031 52.671875 -3.890625 52.296875 -5.796875 C 51.929688 -7.710938 51.703125 -9.695312 51.609375 -11.75 C 48.710938 -9.976562 45.515625 -8.179688 42.015625 -6.359375 C 38.523438 -4.546875 34.9375 -3.03125 31.25 -1.8125 C 27.570312 -0.601562 23.914062 0 20.28125 0 C 14.59375 0 10.207031 -1.46875 7.125 -4.40625 C 4.050781 -7.34375 2.515625 -11.703125 2.515625 -17.484375 C 2.515625 -22.796875 2.515625 -28.53125 2.515625 -34.6875 C 2.515625 -40.84375 2.515625 -46.4375 2.515625 -51.46875 C 2.515625 -55.007812 2.347656 -58.082031 2.015625 -60.6875 C 1.691406 -63.300781 1.019531 -65.914062 0 -68.53125 C 3.070312 -68.53125 6.144531 -68.53125 9.21875 -68.53125 C 12.300781 -68.53125 15.382812 -68.53125 18.46875 -68.53125 C 17.4375 -65.914062 16.753906 -63.300781 16.421875 -60.6875 C 16.097656 -58.082031 15.9375 -55.007812 15.9375 -51.46875 L 15.9375 -20.28125 C 15.9375 -15.800781 16.773438 -12.582031 18.453125 -10.625 C 20.140625 -8.664062 22.378906 -7.640625 25.171875 -7.546875 C 27.972656 -7.453125 31.097656 -7.96875 34.546875 -9.09375 C 37.523438 -10.113281 40.53125 -11.367188 43.5625 -12.859375 C 46.59375 -14.359375 49.226562 -15.710938 51.46875 -16.921875 C 51.46875 -17.109375 51.46875 -17.316406 51.46875 -17.546875 C 51.46875 -17.785156 51.46875 -18 51.46875 -18.1875 L 51.46875 -51.46875 C 51.46875 -55.007812 51.300781 -58.082031 50.96875 -60.6875 C 50.644531 -63.300781 49.972656 -65.914062 48.953125 -68.53125 C 52.023438 -68.53125 55.097656 -68.53125 58.171875 -68.53125 C 61.253906 -68.53125 64.332031 -68.53125 67.40625 -68.53125 C 66.476562 -65.914062 65.828125 -63.300781 65.453125 -60.6875 C 65.078125 -58.082031 64.890625 -55.007812 64.890625 -51.46875 L 64.890625 -17.0625 C 64.890625 -13.613281 65.078125 -10.582031 65.453125 -7.96875 C 65.828125 -5.363281 66.476562 -2.707031 67.40625 0 Z M 67.40625 0 "/></g></g></g><g fill="#737373" fill-opacity="1"><g transform="translate(720.593011, 177.214184)"><g><path d="M 0 -50.203125 C -0.09375 -55.242188 2.234375 -59.554688 6.984375 -63.140625 C 11.742188 -66.734375 18.367188 -68.53125 26.859375 -68.53125 C 33.003906 -68.53125 39.335938 -68.109375 45.859375 -67.265625 C 52.390625 -66.429688 57.941406 -65.5 62.515625 -64.46875 L 52.859375 -51.046875 C 49.410156 -53.847656 45.632812 -56.390625 41.53125 -58.671875 C 37.4375 -60.953125 33.195312 -62.46875 28.8125 -63.21875 C 27.226562 -63.5 25.363281 -63.640625 23.21875 -63.640625 C 21.070312 -63.640625 18.972656 -63.40625 16.921875 -62.9375 C 11.984375 -61.820312 9.253906 -59.910156 8.734375 -57.203125 C 8.222656 -54.492188 9.878906 -51.789062 13.703125 -49.09375 C 16.410156 -47.226562 19.8125 -45.5 23.90625 -43.90625 C 28.007812 -42.320312 32.273438 -40.738281 36.703125 -39.15625 C 41.140625 -37.570312 45.289062 -35.820312 49.15625 -33.90625 C 53.03125 -32 56.203125 -29.785156 58.671875 -27.265625 C 61.140625 -24.753906 62.421875 -21.773438 62.515625 -18.328125 C 62.609375 -13.285156 60.273438 -8.96875 55.515625 -5.375 C 50.765625 -1.789062 44.148438 0 35.671875 0 C 29.421875 0 23.078125 -0.414062 16.640625 -1.25 C 10.210938 -2.09375 4.664062 -3.03125 0 -4.0625 L 9.65625 -17.484375 C 13.101562 -14.679688 16.875 -12.140625 20.96875 -9.859375 C 25.070312 -7.578125 29.316406 -6.0625 33.703125 -5.3125 C 35.285156 -5.03125 37.125 -4.890625 39.21875 -4.890625 C 41.320312 -4.890625 43.398438 -5.125 45.453125 -5.59375 C 49.929688 -6.625 52.585938 -8.09375 53.421875 -10 C 54.265625 -11.90625 53.894531 -13.882812 52.3125 -15.9375 C 50.726562 -17.988281 48.441406 -19.8125 45.453125 -21.40625 C 42.472656 -22.988281 39 -24.5 35.03125 -25.9375 C 31.070312 -27.382812 27.0625 -28.878906 23 -30.421875 C 18.945312 -31.960938 15.195312 -33.664062 11.75 -35.53125 C 8.300781 -37.394531 5.503906 -39.515625 3.359375 -41.890625 C 1.210938 -44.265625 0.09375 -47.035156 0 -50.203125 Z M 0 -50.203125 "/></g></g></g><g fill="#737373" fill-opacity="1"><g transform="translate(795.278893, 177.214184)"><g/></g></g><g fill="#737373" fill-opacity="1"><g transform="translate(843.530995, 177.214184)"><g><path d="M 34.265625 -68.53125 C 40.609375 -68.53125 46.363281 -66.988281 51.53125 -63.90625 C 56.707031 -60.832031 60.832031 -56.707031 63.90625 -51.53125 C 66.988281 -46.363281 68.53125 -40.609375 68.53125 -34.265625 C 68.53125 -28.015625 66.988281 -22.28125 63.90625 -17.0625 C 60.832031 -11.84375 56.707031 -7.691406 51.53125 -4.609375 C 46.363281 -1.535156 40.609375 0 34.265625 0 C 28.015625 0 22.28125 -1.535156 17.0625 -4.609375 C 11.84375 -7.691406 7.691406 -11.84375 4.609375 -17.0625 C 1.535156 -22.28125 0 -28.015625 0 -34.265625 C 0 -40.609375 1.535156 -46.363281 4.609375 -51.53125 C 7.691406 -56.707031 11.84375 -60.832031 17.0625 -63.90625 C 22.28125 -66.988281 28.015625 -68.53125 34.265625 -68.53125 Z M 49.234375 -8.953125 C 52.585938 -10.910156 54.941406 -13.820312 56.296875 -17.6875 C 57.648438 -21.5625 58 -25.898438 57.34375 -30.703125 C 56.6875 -35.503906 54.960938 -40.234375 52.171875 -44.890625 C 49.460938 -49.554688 46.171875 -53.332031 42.296875 -56.21875 C 38.429688 -59.113281 34.46875 -60.882812 30.40625 -61.53125 C 26.351562 -62.1875 22.648438 -61.535156 19.296875 -59.578125 C 16.035156 -57.710938 13.703125 -54.84375 12.296875 -50.96875 C 10.898438 -47.101562 10.550781 -42.769531 11.25 -37.96875 C 11.957031 -33.164062 13.660156 -28.4375 16.359375 -23.78125 C 19.160156 -19.113281 22.472656 -15.3125 26.296875 -12.375 C 30.117188 -9.4375 34.078125 -7.640625 38.171875 -6.984375 C 42.273438 -6.335938 45.960938 -6.992188 49.234375 -8.953125 Z M 49.234375 -8.953125 "/></g></g></g><g fill="#737373" fill-opacity="1"><g transform="translate(923.671479, 177.214184)"><g><path d="M 0 -68.53125 L 13.421875 -68.53125 C 14.171875 -66.570312 14.734375 -64.632812 15.109375 -62.71875 C 15.484375 -60.8125 15.710938 -58.832031 15.796875 -56.78125 C 18.785156 -58.644531 21.976562 -60.460938 25.375 -62.234375 C 28.78125 -64.003906 32.347656 -65.492188 36.078125 -66.703125 C 39.804688 -67.921875 43.488281 -68.53125 47.125 -68.53125 C 52.90625 -68.53125 57.3125 -67.0625 60.34375 -64.125 C 63.375 -61.1875 64.890625 -56.828125 64.890625 -51.046875 C 64.890625 -45.734375 64.890625 -40 64.890625 -33.84375 C 64.890625 -27.6875 64.890625 -22.09375 64.890625 -17.0625 C 64.890625 -13.613281 65.078125 -10.582031 65.453125 -7.96875 C 65.828125 -5.363281 66.476562 -2.707031 67.40625 0 C 64.332031 0 61.253906 0 58.171875 0 C 55.097656 0 52.023438 0 48.953125 0 C 49.972656 -2.707031 50.644531 -5.363281 50.96875 -7.96875 C 51.300781 -10.582031 51.46875 -13.613281 51.46875 -17.0625 L 51.46875 -48.25 C 51.46875 -52.726562 50.628906 -55.945312 48.953125 -57.90625 C 47.273438 -59.863281 45.035156 -60.890625 42.234375 -60.984375 C 39.441406 -61.078125 36.316406 -60.5625 32.859375 -59.4375 C 29.972656 -58.507812 26.988281 -57.296875 23.90625 -55.796875 C 20.832031 -54.304688 18.175781 -52.910156 15.9375 -51.609375 C 15.9375 -51.421875 15.9375 -51.234375 15.9375 -51.046875 C 15.9375 -50.859375 15.9375 -50.671875 15.9375 -50.484375 L 15.9375 -17.0625 C 15.9375 -13.613281 16.097656 -10.582031 16.421875 -7.96875 C 16.753906 -5.363281 17.4375 -2.707031 18.46875 0 C 15.382812 0 12.300781 0 9.21875 0 C 6.144531 0 3.070312 0 0 0 C 1.019531 -2.707031 1.691406 -5.363281 2.015625 -7.96875 C 2.347656 -10.582031 2.515625 -13.613281 2.515625 -17.0625 L 2.515625 -51.46875 C 2.515625 -55.007812 2.347656 -58.082031 2.015625 -60.6875 C 1.691406 -63.300781 1.019531 -65.914062 0 -68.53125 Z M 0 -68.53125 "/></g></g></g><g clip-path="url(#7c444905ed)"><path fill="#ff3131" d="M 165.816406 42.78125 C 164.972656 42.78125 164.140625 42.816406 163.3125 42.882812 C 152.007812 43.835938 142.515625 51.167969 138.449219 61.265625 C 138.429688 60.609375 137.894531 39.945312 161.421875 34.53125 L 161.429688 34.53125 C 156.691406 21.558594 144.238281 12.296875 129.625 12.296875 C 116.980469 12.296875 105.953125 19.238281 100.148438 29.515625 C 97.378906 34.421875 95.792969 40.089844 95.792969 46.128906 C 95.792969 52.15625 97.363281 57.8125 100.128906 62.710938 C 86.746094 52.8125 86.984375 32.039062 94.371094 21.984375 C 88.269531 15.992188 79.894531 12.296875 70.667969 12.296875 C 64.871094 12.296875 59.425781 13.75 54.65625 16.320312 C 44.945312 21.546875 38.078125 31.371094 36.980469 42.882812 C 36.875 43.953125 36.828125 45.03125 36.828125 46.128906 C 36.828125 55.351562 40.515625 63.714844 46.5 69.816406 C 46.089844 69.75 30.441406 67.03125 28.878906 43.324219 L 28.878906 43.316406 C 15.273438 45.933594 5.003906 57.902344 5.003906 72.265625 C 5.003906 88.542969 18.199219 101.746094 34.484375 101.746094 C 36.410156 101.746094 38.292969 101.558594 40.113281 101.203125 L 32.949219 177.339844 C 32.335938 183.875 37.476562 189.523438 44.042969 189.523438 L 70.515625 189.523438 L 70.515625 122.265625 C 62.121094 119.222656 58.007812 109.28125 62.175781 94.074219 C 67.242188 75.613281 76.46875 77.398438 76.46875 77.398438 C 76.46875 77.398438 85.703125 75.613281 90.761719 94.074219 C 94.933594 109.28125 90.824219 119.222656 82.425781 122.265625 L 82.425781 189.523438 L 117.863281 189.523438 L 117.863281 122.273438 C 113.160156 120.570312 109.800781 116.699219 108.496094 110.945312 C 108.09375 109.195312 107.886719 107.269531 107.886719 105.179688 L 107.886719 80.660156 C 107.886719 79 109.101562 77.523438 110.75 77.371094 C 112.640625 77.195312 114.214844 78.675781 114.214844 80.519531 L 114.214844 109.128906 C 114.214844 110.960938 115.714844 112.570312 117.546875 112.507812 C 118.394531 112.480469 119.15625 112.125 119.710938 111.566406 C 120.296875 110.980469 120.65625 110.175781 120.65625 109.285156 L 120.65625 80.675781 C 120.65625 78.871094 122.136719 77.296875 123.9375 77.359375 C 124.769531 77.386719 125.519531 77.734375 126.0625 78.28125 C 126.632812 78.859375 126.988281 79.644531 126.988281 80.519531 L 126.988281 109.128906 C 126.988281 110.960938 128.488281 112.570312 130.320312 112.507812 C 131.167969 112.480469 131.929688 112.125 132.484375 111.566406 C 133.066406 110.980469 133.429688 110.175781 133.429688 109.285156 L 133.429688 80.515625 C 133.429688 78.773438 134.847656 77.355469 136.597656 77.355469 C 137.472656 77.355469 138.257812 77.710938 138.835938 78.28125 C 139.40625 78.855469 139.757812 79.640625 139.757812 80.515625 L 139.757812 105.59375 C 139.738281 107.527344 139.53125 109.3125 139.15625 110.945312 C 137.839844 116.699219 134.484375 120.570312 129.78125 122.273438 L 129.78125 189.523438 L 156.253906 189.523438 C 162.820312 189.523438 167.960938 183.875 167.34375 177.335938 L 160.179688 101.203125 C 163.246094 101.785156 166.449219 101.941406 169.820312 101.464844 C 183.695312 99.515625 194.480469 87.914062 195.246094 73.921875 C 196.179688 56.890625 182.644531 42.78125 165.816406 42.78125 Z M 165.816406 42.78125 " fill-opacity="1" fill-rule="nonzero"/></g><g clip-path="url(#ec37d06502)"><path fill="#ff3131" d="M 853.125 88.660156 C 853.121094 88.464844 853.070312 88.289062 852.960938 88.128906 C 852.851562 87.96875 852.710938 87.855469 852.53125 87.78125 C 852.355469 87.707031 852.171875 87.691406 851.980469 87.730469 C 851.792969 87.769531 851.632812 87.855469 851.496094 87.992188 C 848.640625 90.847656 846.214844 94.152344 843.234375 96.9375 C 840.863281 99.15625 836.085938 103.394531 833.105469 99.878906 C 830.347656 96.617188 836.542969 92.265625 838.609375 90.570312 C 840.511719 89 842.511719 87.496094 844.320312 85.8125 C 845.835938 84.554688 846.949219 83.007812 847.648438 81.167969 C 847.703125 80.996094 847.738281 80.820312 847.765625 80.644531 C 847.894531 80.269531 847.816406 79.941406 847.539062 79.664062 C 847.257812 79.382812 846.929688 79.308594 846.554688 79.433594 C 845.292969 79.84375 844.125 80.4375 843.054688 81.214844 C 841.292969 82.308594 839.570312 83.480469 837.828125 84.613281 C 835.921875 85.832031 834.019531 87.03125 832.003906 88.078125 C 830.460938 89.007812 828.800781 89.621094 827.023438 89.914062 C 826.761719 89.980469 826.496094 89.984375 826.230469 89.929688 C 825.964844 89.875 825.722656 89.765625 825.503906 89.597656 C 825.289062 89.433594 825.121094 89.230469 824.996094 88.992188 C 824.871094 88.75 824.804688 88.492188 824.796875 88.21875 C 824.445312 86.183594 825.511719 84.203125 826.832031 82.757812 C 830.195312 79.0625 835.429688 77.160156 839.855469 75.191406 C 842.492188 74.167969 844.941406 72.8125 847.210938 71.125 C 847.476562 70.828125 847.53125 70.496094 847.378906 70.128906 C 847.226562 69.765625 846.953125 69.570312 846.554688 69.546875 C 844.144531 69.597656 841.757812 69.859375 839.390625 70.332031 C 837.027344 70.808594 834.722656 71.488281 832.476562 72.371094 C 830.234375 73.257812 828.085938 74.332031 826.03125 75.597656 C 823.980469 76.863281 822.054688 78.300781 820.257812 79.910156 C 816.753906 83.089844 813.898438 87.191406 813.269531 91.953125 C 812.847656 95.945312 813.085938 99.898438 813.984375 103.8125 C 812.292969 105.820312 810.871094 108.007812 809.71875 110.371094 C 807.953125 113.671875 806.472656 117.09375 805.273438 120.640625 C 802.761719 128.160156 800.742188 136.039062 800.574219 144 C 800.449219 152.1875 801.945312 160.066406 805.054688 167.640625 C 807.292969 173.132812 812.183594 178.722656 818.6875 177.988281 C 820.902344 177.742188 823.167969 176.816406 824.214844 174.742188 C 825.167969 172.839844 824.84375 170.660156 824.40625 168.71875 C 823.839844 166.601562 823.164062 164.519531 822.386719 162.472656 C 821.203125 158.957031 820.234375 155.386719 819.476562 151.753906 C 817.878906 144.324219 817.707031 136.855469 818.960938 129.359375 C 819.5625 126.019531 820.4375 122.695312 821.292969 119.394531 C 821.921875 116.804688 822.875 114.34375 824.148438 112.007812 C 830.25 115.15625 837.648438 111.863281 842.710938 107.894531 C 848.222656 103.59375 854.121094 96.101562 853.125 88.660156 Z M 853.125 88.660156 " fill-opacity="1" fill-rule="nonzero"/></g></svg>